<?xml version="1.0" standalone="no"?>
<!DOCTYPE svg PUBLIC "-//W3C//DTD SVG 20010904//EN"
 "http://www.w3.org/TR/2001/REC-SVG-20010904/DTD/svg10.dtd">
<svg version="1.0" xmlns="http://www.w3.org/2000/svg"
 width="280.000000pt" height="280.000000pt" viewBox="0 0 280.000000 280.000000"
 preserveAspectRatio="xMidYMid meet">
<metadata>
Created by potrace 1.11, written by Peter Selinger 2001-2013
</metadata>
<g transform="translate(0.000000,280.000000) scale(0.100000,-0.100000)"
fill="#000000" stroke="none">
<path d="M1298 2126 c-111 -32 -221 -127 -275 -237 -50 -103 -67 -179 -67
-314 -1 -140 16 -217 74 -341 32 -70 37 -88 32 -132 -4 -48 -2 -54 31 -87 40
-40 78 -45 128 -19 36 18 63 74 54 114 -8 36 -52 76 -95 87 -30 7 -39 17 -63
66 -44 91 -67 196 -67 311 0 282 140 467 356 468 96 0 172 -48 231 -149 30
-52 63 -145 63 -179 0 -17 10 -25 47 -38 25 -9 49 -14 52 -11 3 3 0 38 -7 78
-16 95 -76 218 -139 281 -93 94 -237 136 -355 102z"/>
<path d="M1265 1681 c-77 -32 -91 -149 -22 -191 55 -34 117 -21 155 33 12 16
23 17 85 12 158 -15 276 -57 393 -141 77 -54 136 -125 177 -214 72 -152 15
-316 -132 -384 -60 -27 -192 -29 -269 -3 l-52 18 -40 -32 c-22 -18 -40 -35
-40 -39 0 -14 133 -50 203 -56 230 -20 436 127 454 323 18 200 -130 419 -364
537 -80 40 -213 75 -315 82 -67 5 -99 11 -113 24 -44 38 -79 47 -120 31z"/>
<path d="M797 1391 c-141 -135 -190 -318 -128 -480 25 -67 60 -113 116 -151
92 -63 215 -89 334 -71 241 38 446 177 566 384 15 26 33 47 40 47 23 0 65 43
74 75 19 73 -29 135 -106 135 -83 0 -130 -85 -89 -159 12 -22 11 -29 -11 -65
-67 -108 -152 -184 -285 -255 -101 -55 -183 -74 -289 -69 -141 7 -218 56 -271
175 -16 37 -19 60 -16 117 6 87 36 150 108 229 47 51 51 60 45 89 -14 66 -18
66 -88 -1z"/>
</g>
</svg>
